<?xml version="1.0" encoding="UTF-8"?>
<svg xmlns="http://www.w3.org/2000/svg" fill="#f87171" viewBox="0 0 24 24">
    <path d="M6.18,5.63l0.01,0C7.41,5.63,8.18,4.85,8.18,3.62c0-1.23-0.77-2-2-2s-2,0.77-2,2c0,1.23,0.77,2,2,2 M15.82,5.63 c1.23,0,2-0.77,2-2s-0.77-2-2-2s-2,0.77-2,2c0,1.23,0.77,2,2,2 M11,7.63c-4.42,0-8,3.58-8,8c0,3.54,2.29,6.53,5.47,7.59 c0.96,0.32,1.97,0.49,3.02,0.49c1.05,0,2.06-0.17,3.02-0.49c3.18-1.06,5.47-4.05,5.47-7.59C20,11.21,16.42,7.63,11,7.63z M11,21.63 c-3.31,0-6-2.69-6-6c0-3.31,2.69-6,6-6s6,2.69,6,6C17,18.94,14.31,21.63,11,21.63z"/>
</svg>
