<svg version="1.2" xmlns="http://www.w3.org/2000/svg" viewBox="0 0 512 512" width="512" height="512">
	<title>typescript</title>
	<style>
		.s0 { fill: #60a5fa } 
	</style>
	<g id="SVGRepo_bgCarrier">
	</g>
	<g id="SVGRepo_tracerCarrier">
	</g>
	<g id="SVGRepo_iconCarrier">
		<path fill-rule="evenodd" class="s0" d="m15 0h482c8.3 0 15 6.7 15 15v482c0 8.3-6.7 15-15 15h-482c-8.3 0-15-6.7-15-15v-482c0-8.3 6.7-15 15-15zm218 284h64v-41h-179v41h64v183h51zm84 173c8.1 4.2 18 7.3 29 9.4 11 2.1 23 3.1 35 3.1 12 0 23-1.1 34-3.4 11-2.3 20-6.1 28-11 8.1-5.3 15-12 19-21 4-9 7.1-19 7.1-32 0-9.1-1.4-17-4.1-24-2.7-7-6.6-13-12-18-5.1-5.3-11-10-18-14-7-4-15-8.2-24-12-6.6-2.7-12-5.3-18-7.9-5.2-2.6-9.7-5.2-13-7.8-3.7-2.7-6.5-5.5-8.5-8.4-2-3-3-6.3-3-10q0-5.1 2.7-9.3c1.8-2.8 4.3-5.1 7.5-7.1 3.2-2 7.2-3.5 12-4.6 4.7-1.1 9.9-1.6 16-1.6 4.2 0 8.6 0.3 13 0.9 4.6 0.7 9.3 1.6 14 2.9 4.7 1.3 9.3 2.9 14 4.9 4.4 2 8.5 4.3 12 6.9v-47c-7.6-2.9-16-5.1-25-6.5-9-1.4-19-2.1-31-2.1-12 0-23 1.3-34 3.8-11 2.5-20 6.5-28 12-8.1 5.4-14 12-19 21-4.7 8.4-7 18-7 30 0 15 4.3 28 13 38 8.6 11 22 19 39 27 6.9 2.8 13 5.6 19 8.3q9 4.1 15 8.4c4.3 2.9 7.7 6.1 10 9.5 2.5 3.4 3.8 7.4 3.8 12q0 4.8-2.3 9-2.3 4.2-7.1 7.2c-3.2 2-7.1 3.6-12 4.8-4.7 1.1-10 1.7-17 1.7-11 0-22-1.9-32-5.7-11-3.8-21-9.5-28.1-15.4z"/>
	</g>
</svg>