<svg xmlns="http://www.w3.org/2000/svg" xmlns:xlink="http://www.w3.org/1999/xlink" width="917" zoomAndPan="magnify" viewBox="0 0 687.75 539.249983" height="719" preserveAspectRatio="xMidYMid meet" version="1.0"><defs><g/><clipPath id="70ee855b3f"><path d="M 266 36 L 355 36 L 355 110 L 266 110 Z M 266 36 " clip-rule="nonzero"/></clipPath><clipPath id="54a6793c30"><path d="M 247.390625 72.628906 L 286.304688 -0.242188 L 354.886719 36.382812 L 315.972656 109.253906 Z M 247.390625 72.628906 " clip-rule="nonzero"/></clipPath><clipPath id="fe96c67cad"><path d="M 266.785156 36.3125 L 354.761719 36.621094 L 315.972656 109.253906 Z M 266.785156 36.3125 " clip-rule="nonzero"/></clipPath><clipPath id="aa77aa99e7"><path d="M 79 319 L 165 319 L 165 390 L 79 390 Z M 79 319 " clip-rule="nonzero"/></clipPath><clipPath id="4274b267b4"><path d="M 183.667969 354.503906 L 146.207031 425.355469 L 79.277344 389.96875 L 116.738281 319.117188 Z M 183.667969 354.503906 " clip-rule="nonzero"/></clipPath><clipPath id="1dfcbf4816"><path d="M 165 389.808594 L 79.40625 389.730469 L 116.738281 319.117188 Z M 165 389.808594 " clip-rule="nonzero"/></clipPath><clipPath id="406c9422c9"><path d="M 97 36 L 335 36 L 335 390 L 97 390 Z M 97 36 " clip-rule="nonzero"/></clipPath><clipPath id="cf558c8df8"><path d="M 266.761719 36.386719 L 334.917969 72.734375 L 165.8125 389.824219 L 97.65625 353.476562 Z M 266.761719 36.386719 " clip-rule="nonzero"/></clipPath><clipPath id="15d4b813e8"><path d="M 266.761719 36.386719 L 334.917969 72.734375 L 165.839844 389.773438 L 97.679688 353.425781 Z M 266.761719 36.386719 " clip-rule="nonzero"/></clipPath><clipPath id="75df4d71ef"><path d="M 329 98 L 619 98 L 619 538.5 L 329 538.5 Z M 329 98 " clip-rule="nonzero"/></clipPath><clipPath id="fd6c248cc3"><path d="M 618.253906 501.164062 L 550.4375 538.328125 L 329.777344 135.660156 L 397.59375 98.496094 Z M 618.253906 501.164062 " clip-rule="nonzero"/></clipPath><clipPath id="f919b223eb"><path d="M 618.253906 501.164062 L 550.4375 538.328125 L 329.78125 135.671875 L 397.601562 98.507812 Z M 618.253906 501.164062 " clip-rule="nonzero"/></clipPath><clipPath id="689435fcec"><path d="M 436.070312 463.429688 L 521.949219 463.429688 L 521.949219 538.460938 L 436.070312 538.460938 Z M 436.070312 463.429688 " clip-rule="nonzero"/></clipPath><clipPath id="30f4dbea99"><path d="M 478.9375 463.429688 L 521.804688 538.460938 L 436.070312 538.460938 Z M 478.9375 463.429688 " clip-rule="nonzero"/></clipPath><clipPath id="ac23273b6d"><path d="M 39.882812 463.429688 L 478.9375 463.429688 L 478.9375 538.460938 L 39.882812 538.460938 Z M 39.882812 463.429688 " clip-rule="nonzero"/></clipPath><clipPath id="9677979f34"><path d="M 394 36 L 687 36 L 687 538.5 L 394 538.5 Z M 394 36 " clip-rule="nonzero"/></clipPath><clipPath id="f2722f773d"><path d="M 394.824219 46.925781 L 414.085938 36.25 L 686.523438 527.652344 L 667.265625 538.328125 Z M 394.824219 46.925781 " clip-rule="nonzero"/></clipPath><clipPath id="c4434c64af"><path d="M 394.824219 46.925781 L 414.085938 36.25 L 686.523438 527.648438 L 667.265625 538.328125 Z M 394.824219 46.925781 " clip-rule="nonzero"/></clipPath><clipPath id="ee2e63a680"><path d="M 388 35 L 415 35 L 415 58 L 388 58 Z M 388 35 " clip-rule="nonzero"/></clipPath><clipPath id="3e473c1f0f"><path d="M 407.933594 24.609375 L 420.082031 47.242188 L 400.707031 57.640625 L 388.558594 35.011719 Z M 407.933594 24.609375 " clip-rule="nonzero"/></clipPath><clipPath id="1c16c75ddf"><path d="M 414.003906 35.921875 L 400.703125 57.632812 L 388.558594 35.011719 Z M 414.003906 35.921875 " clip-rule="nonzero"/></clipPath><clipPath id="46ee291c33"><path d="M 0.351562 463.429688 L 79.488281 463.429688 L 79.488281 538.460938 L 0.351562 538.460938 Z M 0.351562 463.429688 " clip-rule="nonzero"/></clipPath><clipPath id="2ad974830e"><path d="M 39.882812 463.429688 L 79.410156 538.460938 L 0.351562 538.460938 Z M 39.882812 463.429688 " clip-rule="nonzero"/></clipPath><clipPath id="5546a57b9a"><path d="M 329.785156 52.875 L 418.25 52.875 L 418.25 135.523438 L 329.785156 135.523438 Z M 329.785156 52.875 " clip-rule="nonzero"/></clipPath><clipPath id="f8a045ced0"><path d="M 373.9375 52.875 L 418.089844 135.523438 L 329.785156 135.523438 Z M 373.9375 52.875 " clip-rule="nonzero"/></clipPath><clipPath id="8ef341b3d3"><path d="M 550.808594 460.449219 L 640 460.449219 L 640 538.460938 L 550.808594 538.460938 Z M 550.808594 460.449219 " clip-rule="nonzero"/></clipPath><clipPath id="36f5c61e4f"><path d="M 595.375 460.449219 L 639.945312 538.460938 L 550.808594 538.460938 Z M 595.375 460.449219 " clip-rule="nonzero"/></clipPath></defs><g clip-path="url(#70ee855b3f)"><g clip-path="url(#54a6793c30)"><g clip-path="url(#fe96c67cad)"><path fill="#01a2e5" d="M 247.390625 72.628906 L 286.160156 0.0273438 L 354.742188 36.652344 L 315.972656 109.253906 Z M 247.390625 72.628906 " fill-opacity="1" fill-rule="nonzero"/></g></g></g><g clip-path="url(#aa77aa99e7)"><g clip-path="url(#4274b267b4)"><g clip-path="url(#1dfcbf4816)"><path fill="#01a2e5" d="M 183.667969 354.503906 L 146.347656 425.09375 L 79.417969 389.707031 L 116.738281 319.117188 Z M 183.667969 354.503906 " fill-opacity="1" fill-rule="nonzero"/></g></g></g><g clip-path="url(#406c9422c9)"><g clip-path="url(#cf558c8df8)"><g clip-path="url(#15d4b813e8)"><path fill="#01a2e5" d="M 266.761719 36.386719 L 334.917969 72.734375 L 165.8125 389.824219 L 97.65625 353.476562 Z M 266.761719 36.386719 " fill-opacity="1" fill-rule="nonzero"/></g></g></g><g clip-path="url(#75df4d71ef)"><g clip-path="url(#fd6c248cc3)"><g clip-path="url(#f919b223eb)"><path fill="#01a2e5" d="M 618.253906 501.164062 L 550.4375 538.328125 L 329.777344 135.660156 L 397.59375 98.496094 Z M 618.253906 501.164062 " fill-opacity="1" fill-rule="nonzero"/></g></g></g><g clip-path="url(#689435fcec)"><g clip-path="url(#30f4dbea99)"><path fill="#01a2e5" d="M 436.070312 463.429688 L 521.949219 463.429688 L 521.949219 538.460938 L 436.070312 538.460938 Z M 436.070312 463.429688 " fill-opacity="1" fill-rule="nonzero"/></g></g><g clip-path="url(#ac23273b6d)"><path fill="#01a2e5" d="M 39.882812 463.429688 L 478.9375 463.429688 L 478.9375 538.460938 L 39.882812 538.460938 Z M 39.882812 463.429688 " fill-opacity="1" fill-rule="nonzero"/></g><g clip-path="url(#9677979f34)"><g clip-path="url(#f2722f773d)"><g clip-path="url(#c4434c64af)"><path fill="#01a2e5" d="M 394.824219 46.925781 L 414.085938 36.25 L 686.523438 527.652344 L 667.265625 538.328125 Z M 394.824219 46.925781 " fill-opacity="1" fill-rule="nonzero"/></g></g></g><g clip-path="url(#ee2e63a680)"><g clip-path="url(#3e473c1f0f)"><g clip-path="url(#1c16c75ddf)"><path fill="#01a2e5" d="M 407.933594 24.609375 L 420.082031 47.242188 L 400.707031 57.640625 L 388.558594 35.011719 Z M 407.933594 24.609375 " fill-opacity="1" fill-rule="nonzero"/></g></g></g><g clip-path="url(#46ee291c33)"><g clip-path="url(#2ad974830e)"><path fill="#01a2e5" d="M 0.351562 463.429688 L 79.488281 463.429688 L 79.488281 538.460938 L 0.351562 538.460938 Z M 0.351562 463.429688 " fill-opacity="1" fill-rule="nonzero"/></g></g><g clip-path="url(#5546a57b9a)"><g clip-path="url(#f8a045ced0)"><path fill="#01a2e5" d="M 329.785156 52.875 L 418.25 52.875 L 418.25 135.523438 L 329.785156 135.523438 Z M 329.785156 52.875 " fill-opacity="1" fill-rule="nonzero"/></g></g><g clip-path="url(#8ef341b3d3)"><g clip-path="url(#36f5c61e4f)"><path fill="#01a2e5" d="M 550.808594 460.449219 L 640.09375 460.449219 L 640.09375 538.460938 L 550.808594 538.460938 Z M 550.808594 460.449219 " fill-opacity="1" fill-rule="nonzero"/></g></g><g fill="#aa050a" fill-opacity="1"><g transform="translate(241.333933, 369.032096)"><g><path d="M 143.234375 0 L 98.71875 0 L 63.640625 -27.328125 L 43.375 -13.5 L 43.375 0 L 9.109375 0 L 9.109375 -81.703125 L 43.375 -81.703125 L 43.375 -43.890625 L 98.375 -81.703125 L 143.234375 -81.703125 L 84.71875 -41.734375 Z M 143.234375 0 "/></g></g></g><path stroke-linecap="butt" transform="matrix(3.338122, 0, 0, 3.338122, 339.665442, 363.141958)" fill="none" stroke-linejoin="miter" d="M 25.986086 19.926835 L 15.372426 12.366212 L 25.975555 5.127391 L 18.028767 5.127391 L 7.863291 12.11579 L 7.863291 5.127391 L 1.739665 5.127391 L 1.739665 19.926835 L 7.863291 19.926835 L 7.863291 17.490491 L 11.65472 14.906703 L 18.090787 19.926835 Z M 26.4331 20.07311 L 18.039298 20.07311 L 11.644188 15.084572 L 8.009565 17.563043 L 8.009565 20.07311 L 1.593391 20.07311 L 1.593391 4.981117 L 8.009565 4.981117 L 8.009565 11.834943 L 17.976108 4.981117 L 26.443632 4.981117 L 15.63338 12.366212 Z M 26.4331 20.07311 " stroke="#f71424" stroke-width="1.253331" stroke-opacity="1" stroke-miterlimit="4"/></svg>