<svg version="1.2" xmlns="http://www.w3.org/2000/svg" viewBox="0 0 688 688" width="688" height="688">
	<title>klimber-kids</title>
	<defs>
		<clipPath clipPathUnits="userSpaceOnUse" id="cp1">
			<path d="m266 95h89v74h-89z"/>
		</clipPath>
		<clipPath clipPathUnits="userSpaceOnUse" id="cp2">
			<path d="m247.39 131.63l38.91-72.87 68.59 36.62-38.92 72.87z"/>
		</clipPath>
		<clipPath clipPathUnits="userSpaceOnUse" id="cp3">
			<path d="m266.79 95.31l87.97 0.31-38.79 72.63z"/>
		</clipPath>
		<clipPath clipPathUnits="userSpaceOnUse" id="cp4">
			<path d="m79 378h86v71h-86z"/>
		</clipPath>
		<clipPath clipPathUnits="userSpaceOnUse" id="cp5">
			<path d="m183.67 413.5l-37.46 70.86-66.93-35.39 37.46-70.85z"/>
		</clipPath>
		<clipPath clipPathUnits="userSpaceOnUse" id="cp6">
			<path d="m165 448.81l-85.59-0.08 37.33-70.61z"/>
		</clipPath>
		<clipPath clipPathUnits="userSpaceOnUse" id="cp7">
			<path d="m97 95h238v354h-238z"/>
		</clipPath>
		<clipPath clipPathUnits="userSpaceOnUse" id="cp8">
			<path d="m266.76 95.39l68.16 36.34-169.11 317.09-68.15-36.34z"/>
		</clipPath>
		<clipPath clipPathUnits="userSpaceOnUse" id="cp9">
			<path d="m266.76 95.39l68.16 36.34-169.08 317.04-68.16-36.34z"/>
		</clipPath>
		<clipPath clipPathUnits="userSpaceOnUse" id="cp10">
			<path d="m329 157h290v440.5h-290z"/>
		</clipPath>
		<clipPath clipPathUnits="userSpaceOnUse" id="cp11">
			<path d="m618.25 560.16l-67.81 37.17-220.66-402.67 67.81-37.16z"/>
		</clipPath>
		<clipPath clipPathUnits="userSpaceOnUse" id="cp12">
			<path d="m618.25 560.16l-67.81 37.17-220.66-402.66 67.82-37.16z"/>
		</clipPath>
		<clipPath clipPathUnits="userSpaceOnUse" id="cp13">
			<path d="m436.07 522.43h85.88v75.03h-85.88z"/>
		</clipPath>
		<clipPath clipPathUnits="userSpaceOnUse" id="cp14">
			<path d="m478.94 522.43l42.86 75.03h-85.73z"/>
		</clipPath>
		<clipPath clipPathUnits="userSpaceOnUse" id="cp15">
			<path d="m39.88 522.43h439.06v75.03h-439.06z"/>
		</clipPath>
		<clipPath clipPathUnits="userSpaceOnUse" id="cp16">
			<path d="m394 95h293v502.5h-293z"/>
		</clipPath>
		<clipPath clipPathUnits="userSpaceOnUse" id="cp17">
			<path d="m394.82 105.93l19.27-10.68 272.43 491.4-19.25 10.68z"/>
		</clipPath>
		<clipPath clipPathUnits="userSpaceOnUse" id="cp18">
			<path d="m394.82 105.93l19.27-10.68 272.43 491.4-19.25 10.68z"/>
		</clipPath>
		<clipPath clipPathUnits="userSpaceOnUse" id="cp19">
			<path d="m388 94h27v23h-27z"/>
		</clipPath>
		<clipPath clipPathUnits="userSpaceOnUse" id="cp20">
			<path d="m407.93 83.61l12.15 22.63-19.37 10.4-12.15-22.63z"/>
		</clipPath>
		<clipPath clipPathUnits="userSpaceOnUse" id="cp21">
			<path d="m414 94.92l-13.3 21.71-12.14-22.62z"/>
		</clipPath>
		<clipPath clipPathUnits="userSpaceOnUse" id="cp22">
			<path d="m0.35 522.43h79.14v75.03h-79.14z"/>
		</clipPath>
		<clipPath clipPathUnits="userSpaceOnUse" id="cp23">
			<path d="m39.88 522.43l39.53 75.03h-79.06z"/>
		</clipPath>
		<clipPath clipPathUnits="userSpaceOnUse" id="cp24">
			<path d="m329.79 111.88h88.46v82.64h-88.46z"/>
		</clipPath>
		<clipPath clipPathUnits="userSpaceOnUse" id="cp25">
			<path d="m373.94 111.88l44.15 82.64h-88.3z"/>
		</clipPath>
		<clipPath clipPathUnits="userSpaceOnUse" id="cp26">
			<path d="m550.81 519.45h89.19v78.01h-89.19z"/>
		</clipPath>
		<clipPath clipPathUnits="userSpaceOnUse" id="cp27">
			<path d="m595.38 519.45l44.57 78.01h-89.14z"/>
		</clipPath>
	</defs>
	<style>
		.s0 { fill: #01a2e5 } 
		.s1 { fill: #aa050a } 
		.s2 { fill: none;stroke: #f71424;stroke-width: 4.2 } 
	</style>
	<g id="Clip-Path" clip-path="url(#cp1)">
		<g>
			<g id="Clip-Path" clip-path="url(#cp2)">
				<g>
					<g id="Clip-Path" clip-path="url(#cp3)">
						<g>
							<path class="s0" d="m247.4 131.6l38.8-72.6 68.5 36.7-38.7 72.6z"/>
						</g>
					</g>
				</g>
			</g>
		</g>
	</g>
	<g id="Clip-Path" clip-path="url(#cp4)">
		<g>
			<g id="Clip-Path" clip-path="url(#cp5)">
				<g>
					<g id="Clip-Path" clip-path="url(#cp6)">
						<g>
							<path class="s0" d="m183.7 413.5l-37.4 70.6-66.9-35.4 37.3-70.6z"/>
						</g>
					</g>
				</g>
			</g>
		</g>
	</g>
	<g id="Clip-Path" clip-path="url(#cp7)">
		<g>
			<g id="Clip-Path" clip-path="url(#cp8)">
				<g>
					<g id="Clip-Path" clip-path="url(#cp9)">
						<g>
							<path class="s0" d="m266.8 95.4l68.1 36.3-169.1 317.1-68.1-36.3z"/>
						</g>
					</g>
				</g>
			</g>
		</g>
	</g>
	<g id="Clip-Path" clip-path="url(#cp10)">
		<g>
			<g id="Clip-Path" clip-path="url(#cp11)">
				<g>
					<g id="Clip-Path" clip-path="url(#cp12)">
						<g>
							<path class="s0" d="m618.3 560.2l-67.9 37.1-220.6-402.6 67.8-37.2z"/>
						</g>
					</g>
				</g>
			</g>
		</g>
	</g>
	<g id="Clip-Path" clip-path="url(#cp13)">
		<g>
			<g id="Clip-Path" clip-path="url(#cp14)">
				<g>
					<path class="s0" d="m436.1 522.4h85.8v75.1h-85.8z"/>
				</g>
			</g>
		</g>
	</g>
	<g id="Clip-Path" clip-path="url(#cp15)">
		<g>
			<path class="s0" d="m39.9 522.4h439v75.1h-439z"/>
		</g>
	</g>
	<g id="Clip-Path" clip-path="url(#cp16)">
		<g>
			<g id="Clip-Path" clip-path="url(#cp17)">
				<g>
					<g id="Clip-Path" clip-path="url(#cp18)">
						<g>
							<path class="s0" d="m394.8 105.9l19.3-10.7 272.4 491.5-19.2 10.6z"/>
						</g>
					</g>
				</g>
			</g>
		</g>
	</g>
	<g id="Clip-Path" clip-path="url(#cp19)">
		<g>
			<g id="Clip-Path" clip-path="url(#cp20)">
				<g>
					<g id="Clip-Path" clip-path="url(#cp21)">
						<g>
							<path class="s0" d="m407.9 83.6l12.2 22.6-19.4 10.4-12.1-22.6z"/>
						</g>
					</g>
				</g>
			</g>
		</g>
	</g>
	<g id="Clip-Path" clip-path="url(#cp22)">
		<g>
			<g id="Clip-Path" clip-path="url(#cp23)">
				<g>
					<path class="s0" d="m0.4 522.4h79.1v75.1h-79.1z"/>
				</g>
			</g>
		</g>
	</g>
	<g id="Clip-Path" clip-path="url(#cp24)">
		<g>
			<g id="Clip-Path" clip-path="url(#cp25)">
				<g>
					<path class="s0" d="m329.8 111.9h88.4v82.6h-88.4z"/>
				</g>
			</g>
		</g>
	</g>
	<g id="Clip-Path" clip-path="url(#cp26)">
		<g>
			<g id="Clip-Path" clip-path="url(#cp27)">
				<g>
					<path class="s0" d="m550.8 519.4h89.3v78.1h-89.3z"/>
				</g>
			</g>
		</g>
	</g>
	<g>
		<g>
			<g>
				<path class="s1" d="m384.6 428h-44.5l-35.1-27.3-20.3 13.8v13.5h-34.3v-81.7h34.3v37.8l55-37.8h44.9l-58.5 40z"/>
			</g>
		</g>
	</g>
	<path class="s2" d="m427.9 489.1h-28l-21.4-16.6-12.1 8.3v8.3h-21.4v-50.3h21.4v22.8l33.3-22.8h28.2l-36 24.6zm-1.5-0.5l-35.5-25.2 35.4-24.2h-26.5l-33.9 23.4v-23.4h-20.5v49.4h20.5v-8.1l12.6-8.6 21.5 16.7z"/>
</svg>